<mxfile host="app.diagrams.net" agent="Mozilla/5.0 (Windows NT 10.0; Win64; x64) AppleWebKit/537.36 (KHTML, like Gecko) Chrome/127.0.0.0 Safari/537.36 Edg/127.0.0.0" version="24.7.7">
  <diagram name="페이지-1" id="CHRf9KIFldmfQ6KkUF35">
    <mxGraphModel dx="1173" dy="770" grid="1" gridSize="10" guides="1" tooltips="1" connect="1" arrows="1" fold="1" page="1" pageScale="1" pageWidth="827" pageHeight="1169" math="0" shadow="0">
      <root>
        <mxCell id="0" />
        <mxCell id="1" parent="0" />
        <mxCell id="qqJ8E_7XKEZBkvZXlv93-3" style="edgeStyle=orthogonalEdgeStyle;rounded=0;orthogonalLoop=1;jettySize=auto;html=1;" edge="1" parent="1" source="qqJ8E_7XKEZBkvZXlv93-1" target="qqJ8E_7XKEZBkvZXlv93-4">
          <mxGeometry relative="1" as="geometry">
            <mxPoint x="560" y="400" as="targetPoint" />
            <Array as="points">
              <mxPoint x="520" y="400" />
              <mxPoint x="520" y="400" />
            </Array>
          </mxGeometry>
        </mxCell>
        <mxCell id="qqJ8E_7XKEZBkvZXlv93-1" value="Client" style="rounded=1;whiteSpace=wrap;html=1;" vertex="1" parent="1">
          <mxGeometry x="350" y="370" width="120" height="60" as="geometry" />
        </mxCell>
        <mxCell id="qqJ8E_7XKEZBkvZXlv93-13" style="edgeStyle=orthogonalEdgeStyle;rounded=0;orthogonalLoop=1;jettySize=auto;html=1;" edge="1" parent="1" source="qqJ8E_7XKEZBkvZXlv93-4" target="qqJ8E_7XKEZBkvZXlv93-12">
          <mxGeometry relative="1" as="geometry" />
        </mxCell>
        <mxCell id="qqJ8E_7XKEZBkvZXlv93-25" style="edgeStyle=orthogonalEdgeStyle;rounded=0;orthogonalLoop=1;jettySize=auto;html=1;entryX=1;entryY=0.5;entryDx=0;entryDy=0;" edge="1" parent="1" source="qqJ8E_7XKEZBkvZXlv93-4" target="qqJ8E_7XKEZBkvZXlv93-1">
          <mxGeometry relative="1" as="geometry" />
        </mxCell>
        <mxCell id="qqJ8E_7XKEZBkvZXlv93-4" value="Api Gateway" style="rounded=1;whiteSpace=wrap;html=1;" vertex="1" parent="1">
          <mxGeometry x="520" y="370" width="120" height="60" as="geometry" />
        </mxCell>
        <mxCell id="qqJ8E_7XKEZBkvZXlv93-14" style="edgeStyle=orthogonalEdgeStyle;rounded=0;orthogonalLoop=1;jettySize=auto;html=1;" edge="1" parent="1" source="qqJ8E_7XKEZBkvZXlv93-8" target="qqJ8E_7XKEZBkvZXlv93-15">
          <mxGeometry relative="1" as="geometry">
            <mxPoint x="840" y="330" as="targetPoint" />
          </mxGeometry>
        </mxCell>
        <mxCell id="qqJ8E_7XKEZBkvZXlv93-47" style="edgeStyle=orthogonalEdgeStyle;rounded=0;orthogonalLoop=1;jettySize=auto;html=1;entryX=0.5;entryY=0;entryDx=0;entryDy=0;" edge="1" parent="1" source="qqJ8E_7XKEZBkvZXlv93-8" target="qqJ8E_7XKEZBkvZXlv93-38">
          <mxGeometry relative="1" as="geometry" />
        </mxCell>
        <mxCell id="qqJ8E_7XKEZBkvZXlv93-8" value="Kafka" style="shape=cylinder3;whiteSpace=wrap;html=1;boundedLbl=1;backgroundOutline=1;size=15;" vertex="1" parent="1">
          <mxGeometry x="710" y="490" width="60" height="80" as="geometry" />
        </mxCell>
        <mxCell id="qqJ8E_7XKEZBkvZXlv93-16" style="edgeStyle=orthogonalEdgeStyle;rounded=0;orthogonalLoop=1;jettySize=auto;html=1;" edge="1" parent="1" source="qqJ8E_7XKEZBkvZXlv93-10" target="qqJ8E_7XKEZBkvZXlv93-17">
          <mxGeometry relative="1" as="geometry">
            <mxPoint x="590" y="190" as="targetPoint" />
            <Array as="points">
              <mxPoint x="740" y="190" />
            </Array>
          </mxGeometry>
        </mxCell>
        <mxCell id="qqJ8E_7XKEZBkvZXlv93-10" value="Rabbit&lt;div&gt;MQ&lt;/div&gt;" style="shape=cylinder3;whiteSpace=wrap;html=1;boundedLbl=1;backgroundOutline=1;size=15;" vertex="1" parent="1">
          <mxGeometry x="710" y="230" width="60" height="80" as="geometry" />
        </mxCell>
        <mxCell id="qqJ8E_7XKEZBkvZXlv93-11" style="edgeStyle=orthogonalEdgeStyle;rounded=0;orthogonalLoop=1;jettySize=auto;html=1;entryX=0;entryY=0.5;entryDx=0;entryDy=0;entryPerimeter=0;" edge="1" parent="1" source="qqJ8E_7XKEZBkvZXlv93-4" target="qqJ8E_7XKEZBkvZXlv93-10">
          <mxGeometry relative="1" as="geometry" />
        </mxCell>
        <mxCell id="qqJ8E_7XKEZBkvZXlv93-24" style="edgeStyle=orthogonalEdgeStyle;rounded=0;orthogonalLoop=1;jettySize=auto;html=1;entryX=1;entryY=0.5;entryDx=0;entryDy=0;" edge="1" parent="1" source="qqJ8E_7XKEZBkvZXlv93-12" target="qqJ8E_7XKEZBkvZXlv93-4">
          <mxGeometry relative="1" as="geometry" />
        </mxCell>
        <mxCell id="qqJ8E_7XKEZBkvZXlv93-30" style="edgeStyle=orthogonalEdgeStyle;rounded=0;orthogonalLoop=1;jettySize=auto;html=1;entryX=0;entryY=0.5;entryDx=0;entryDy=0;" edge="1" parent="1" source="qqJ8E_7XKEZBkvZXlv93-12" target="qqJ8E_7XKEZBkvZXlv93-20">
          <mxGeometry relative="1" as="geometry" />
        </mxCell>
        <mxCell id="qqJ8E_7XKEZBkvZXlv93-12" value="DB" style="shape=cylinder3;whiteSpace=wrap;html=1;boundedLbl=1;backgroundOutline=1;size=15;" vertex="1" parent="1">
          <mxGeometry x="710" y="360" width="60" height="80" as="geometry" />
        </mxCell>
        <mxCell id="qqJ8E_7XKEZBkvZXlv93-19" style="edgeStyle=orthogonalEdgeStyle;rounded=0;orthogonalLoop=1;jettySize=auto;html=1;" edge="1" parent="1" source="qqJ8E_7XKEZBkvZXlv93-15" target="qqJ8E_7XKEZBkvZXlv93-20">
          <mxGeometry relative="1" as="geometry">
            <mxPoint x="1010" y="330" as="targetPoint" />
          </mxGeometry>
        </mxCell>
        <mxCell id="qqJ8E_7XKEZBkvZXlv93-15" value="User Event&lt;br&gt;Monitor Service" style="rounded=1;whiteSpace=wrap;html=1;" vertex="1" parent="1">
          <mxGeometry x="827" y="500" width="120" height="60" as="geometry" />
        </mxCell>
        <mxCell id="qqJ8E_7XKEZBkvZXlv93-22" style="edgeStyle=orthogonalEdgeStyle;rounded=0;orthogonalLoop=1;jettySize=auto;html=1;entryX=0.5;entryY=0;entryDx=0;entryDy=0;" edge="1" parent="1" source="qqJ8E_7XKEZBkvZXlv93-17" target="qqJ8E_7XKEZBkvZXlv93-4">
          <mxGeometry relative="1" as="geometry" />
        </mxCell>
        <mxCell id="qqJ8E_7XKEZBkvZXlv93-17" value="Alert Service" style="rounded=1;whiteSpace=wrap;html=1;" vertex="1" parent="1">
          <mxGeometry x="520" y="160" width="120" height="60" as="geometry" />
        </mxCell>
        <mxCell id="qqJ8E_7XKEZBkvZXlv93-27" style="edgeStyle=orthogonalEdgeStyle;rounded=0;orthogonalLoop=1;jettySize=auto;html=1;" edge="1" parent="1" source="qqJ8E_7XKEZBkvZXlv93-20" target="qqJ8E_7XKEZBkvZXlv93-28">
          <mxGeometry relative="1" as="geometry">
            <mxPoint x="1030" y="220" as="targetPoint" />
          </mxGeometry>
        </mxCell>
        <mxCell id="qqJ8E_7XKEZBkvZXlv93-31" style="edgeStyle=orthogonalEdgeStyle;rounded=0;orthogonalLoop=1;jettySize=auto;html=1;" edge="1" parent="1" source="qqJ8E_7XKEZBkvZXlv93-20">
          <mxGeometry relative="1" as="geometry">
            <mxPoint x="770" y="400" as="targetPoint" />
          </mxGeometry>
        </mxCell>
        <mxCell id="qqJ8E_7XKEZBkvZXlv93-20" value="Admin client" style="rounded=1;whiteSpace=wrap;html=1;" vertex="1" parent="1">
          <mxGeometry x="827" y="370" width="120" height="60" as="geometry" />
        </mxCell>
        <mxCell id="qqJ8E_7XKEZBkvZXlv93-29" style="edgeStyle=orthogonalEdgeStyle;rounded=0;orthogonalLoop=1;jettySize=auto;html=1;entryX=0.5;entryY=0;entryDx=0;entryDy=0;" edge="1" parent="1" source="qqJ8E_7XKEZBkvZXlv93-28" target="qqJ8E_7XKEZBkvZXlv93-20">
          <mxGeometry relative="1" as="geometry" />
        </mxCell>
        <mxCell id="qqJ8E_7XKEZBkvZXlv93-28" value="Admin DB" style="shape=cylinder3;whiteSpace=wrap;html=1;boundedLbl=1;backgroundOutline=1;size=15;" vertex="1" parent="1">
          <mxGeometry x="857" y="210" width="60" height="80" as="geometry" />
        </mxCell>
        <mxCell id="qqJ8E_7XKEZBkvZXlv93-34" style="edgeStyle=orthogonalEdgeStyle;rounded=0;orthogonalLoop=1;jettySize=auto;html=1;entryX=0;entryY=0.5;entryDx=0;entryDy=0;entryPerimeter=0;" edge="1" parent="1" source="qqJ8E_7XKEZBkvZXlv93-4" target="qqJ8E_7XKEZBkvZXlv93-8">
          <mxGeometry relative="1" as="geometry" />
        </mxCell>
        <mxCell id="qqJ8E_7XKEZBkvZXlv93-42" style="edgeStyle=orthogonalEdgeStyle;rounded=0;orthogonalLoop=1;jettySize=auto;html=1;entryX=0.5;entryY=1;entryDx=0;entryDy=0;" edge="1" parent="1" source="qqJ8E_7XKEZBkvZXlv93-35" target="qqJ8E_7XKEZBkvZXlv93-4">
          <mxGeometry relative="1" as="geometry" />
        </mxCell>
        <mxCell id="qqJ8E_7XKEZBkvZXlv93-35" value="Redis" style="shape=cylinder3;whiteSpace=wrap;html=1;boundedLbl=1;backgroundOutline=1;size=15;" vertex="1" parent="1">
          <mxGeometry x="550" y="520" width="60" height="80" as="geometry" />
        </mxCell>
        <mxCell id="qqJ8E_7XKEZBkvZXlv93-38" value="Cache Service" style="rounded=1;whiteSpace=wrap;html=1;" vertex="1" parent="1">
          <mxGeometry x="680" y="640" width="120" height="60" as="geometry" />
        </mxCell>
        <mxCell id="qqJ8E_7XKEZBkvZXlv93-44" style="edgeStyle=orthogonalEdgeStyle;rounded=0;orthogonalLoop=1;jettySize=auto;html=1;entryX=0.5;entryY=1;entryDx=0;entryDy=0;entryPerimeter=0;" edge="1" parent="1" source="qqJ8E_7XKEZBkvZXlv93-38" target="qqJ8E_7XKEZBkvZXlv93-35">
          <mxGeometry relative="1" as="geometry" />
        </mxCell>
        <mxCell id="qqJ8E_7XKEZBkvZXlv93-46" style="edgeStyle=orthogonalEdgeStyle;rounded=0;orthogonalLoop=1;jettySize=auto;html=1;entryX=0.5;entryY=0;entryDx=0;entryDy=0;entryPerimeter=0;" edge="1" parent="1" source="qqJ8E_7XKEZBkvZXlv93-4" target="qqJ8E_7XKEZBkvZXlv93-35">
          <mxGeometry relative="1" as="geometry" />
        </mxCell>
      </root>
    </mxGraphModel>
  </diagram>
</mxfile>
